<?xml version="1.0" encoding="utf-8"?>
<!-- Generator: Adobe Illustrator 23.0.1, SVG Export Plug-In . SVG Version: 6.00 Build 0)  -->
<svg version="1.1" id="Calque_1" xmlns="http://www.w3.org/2000/svg" xmlns:xlink="http://www.w3.org/1999/xlink" x="0px" y="0px"
	 viewBox="0 0 2363 1496.7" style="enable-background:new 0 0 2363 1496.7;" xml:space="preserve">
<style type="text/css">
	.st0{fill:none;stroke:#231F20;stroke-width:0.57;stroke-miterlimit:10;}
	.st1{fill:#231F20;}
</style>
<title>Plante_Baby_Point_def</title>
<g id="Layer_1">
	<path id="plante" class="st0" d="M58.5,157.3c0,0-9.8,6.2-20.6-2.3s-10.1-12.6-4.6-16.5s17.3-13.4,23.7-8.8s18.3,18.5,21.3,12
		s0-6.9-6-7.7s-16.5-8.5-12.6-15.5s15.1-9.6,23-4.8s8.9,9.5,7.3,14.6s-1.7,12,3.5,12.1s10.8-0.9,9.1-7.7s-7.6-16.1-14.9-21.3
		s-11.7-9-8.4-13.8s8.9-7.8,14.4-3.7s6.3,12.3,9.7,18.9s7.6,11.8,11.4,9.2s4.1-5.3,1.2-8.4S99.3,99.9,97.4,85.4s0.1-22.4,3.1-26.9
		s11-11.1,16.3-7.5s7.1,14.1,6.1,23.5s-6.4,25.6,2.9,29.5s20,3.7,20.1-5.8s-0.8-17.1-6.8-23s-12-10.3-12.7-19.5s0.8-21.6,7.1-24.7
		c6.2-3.1,12.9-5.6,17.5,0.4s6.3,22.4,3.7,35.5s8,11.2,10.4,9.8s11.4-7.1,8.6-17.4s-14.3-12.9-13.4-35.3S172,0.4,178.5,0.3
		s15.4,6.7,13,15.1s-11.9,22.9-6.1,28.1s7.6,4.4,8.6-0.3s2.7-18.3,9.5-23.5s15.6-7.1,22.4-3.7s12.5,7.3,10.2,13.5
		s-13.6,10.8-21.4,13s-9.9,5.6-6.5,7.4s13.6,3,19.8-0.8s12.1-9.5,15.2-2.6s3.9,18.1-1.4,22.4s-22,9.2-32.4,1.5s-12.8-10.8-18.3-7.7
		c-5.4,3.2-6.3,12.5,2.2,14.9s27.1-2.4,35.3,5.2s4.8,15.3,0.3,19.8s-27.4,10.4-46.5-3.7s-21.2-7.7-21.8-5.1s-1.4,9.6,6.4,13.2
		s24.2,3.4,31.8,6.1s12.8,12.1,6.3,22.4s-26.2,17.2-43.6,0.9s-20.7-14.1-23-12.1s-2.4,15.8,11.2,18.9s24.9,9.6,23.5,18.3
		s-18.8,23.4-42.1,4s-26.1-19.1-29.8-14.8s4.5,12.3,13.8,12.9s17.1,4.8,18,12.6s-3.9,15.6-14.3,9.7s-13.6-12.4-20.3-6
		s-4.4,13,5.5,15.4s17.5-0.2,26,5.1s5.2,26.1-2.9,32.7s-15.6,2-16.8-6.6s-3.5-26.5-11.2-24.4s-10.1,8.5,0,26.4s15.3,32.6,12,41.5
		s-15.8,18-23.8,9.2s-4.8-16.7-3.4-25.5s5.2-23.6-0.6-31.2s-13.3-14.2-20.9-6.1s-4.9,19.1,0.3,25.3s6.6,14.9,2.5,21.3
		s-25,11.5-30.4,2.5s-7.5-15.8-1.4-19.8s23.9-18,16.3-19.1s-10.9,6-24.7,9.8s-24.9,1.1-24.9-9.8s4.6-14.3,12-16.1s48.9-2.6,57-6
		s13.2-6.4,10.9-14.9s-0.9-16.6-11.2-11.4s-22.2,20.1-37.7,20.1s-19.2-6-18.1-13.2s4.5-15.1,15.8-15.2s38.8-0.7,43-5.5s5-9.6,1.1-10
		S65.7,151.6,58.5,157.3z"/>
	<path id="baby" class="st0" d="M373.6,149.6c0-4,0.3-8.2,2.6-12.4c1.4-2.4,3.2-4.6,5.3-6.4c2.9-2.5,6.2-4.6,9.6-6.3
		c8.2-4.2,7.6-2.4,4.6,1.1c-3,3.6-8.4,9-10.1,12.1s-3.9,9.4-6.1,14.6s-4.2,9.5-5.4,8.7C371.8,159.5,373.5,157.6,373.6,149.6z"/>
	<circle id="anchor" class="st1" cx="13.2" cy="185.4" r="5.2"/>
</g>
</svg>
