<svg xmlns="http://www.w3.org/2000/svg" viewBox="0 0 2362.99 1496.68">
  <defs>
    <style>
    .cls-1,.cls-3,.cls-4{fill:none;stroke:#231f20;fill-rule:evenodd;}
		.cls-1,.cls-4{stroke-miterlimit:10;}
		.cls-1,.cls-3{stroke-width:0.57px;}
		.cls-2{fill:#231f20;}
		.cls-3{stroke-linecap:round;stroke-linejoin:round;}
		.cls-4{stroke-width:0.57px;}
	</style>
  </defs>
  <title>
    Plante_Baby_Point_def</title>
    <g id="Layer_1" data-name="Layer 1">
      <path id="plante" class="cls-1" d="M58.21,157s-9.75,6.22-20.58-2.3S27.48,142.15,33,138.24s17.27-13.36,23.66-8.75S74.94,148,78,141.47s0-6.91-6-7.68-16.48-8.54-12.6-15.52,15.1-9.59,23-4.76S91.3,123,89.7,128.1s-1.74,12,3.54,12.14,10.77-.94,9.06-7.68-7.63-16.12-14.9-21.35-11.71-9-8.45-13.83,8.9-7.76,14.44-3.68,6.35,12.34,9.68,18.89,7.58,11.77,11.36,9.22,4.13-5.33,1.23-8.45S99,99.59,97.08,85.1s.11-22.4,3.07-26.88,11-11.06,16.28-7.53,7.06,14.14,6.14,23.5-6.38,25.58,2.92,29.49,20,3.73,20.12-5.84-.77-17.12-6.76-23-12-10.33-12.74-19.5.84-21.61,7.06-24.73S146.08,25,150.68,31s6.33,22.41,3.69,35.48,8,11.18,10.44,9.83,11.36-7.07,8.6-17.36S159.1,46,160.05,23.66,171.75.13,178.18,0s15.45,6.72,13,15.05-11.94,22.86-6.14,28.11,7.63,4.37,8.6-.3,2.67-18.27,9.52-23.5,15.58-7.11,22.43-3.69S238.08,23,235.78,29.19s-13.65,10.75-21.35,13.05-9.94,5.61-6.46,7.37,13.55,3,19.82-.76,12.12-9.52,15.21-2.61,3.89,18.08-1.39,22.42-22,9.15-32.41,1.54-12.84-10.84-18.28-7.68S184.6,75,193.08,77.42,220.23,75,228.4,82.64s4.82,15.28.31,19.81-27.45,10.41-46.54-3.68S161,91.1,160.36,93.7s-1.36,9.62,6.45,13.21,24.16,3.44,31.79,6.14,12.76,12.12,6.3,22.43-26.23,17.22-43.62.92-20.71-14.07-23-12.14-2.43,15.76,11.21,18.9,24.94,9.6,23.5,18.28-18.76,23.42-42.08,4-26.05-19.09-29.8-14.75,4.47,12.28,13.82,12.91,17.1,4.79,18,12.59-3.94,15.6-14.28,9.68-13.62-12.42-20.28-6-4.36,13,5.53,15.36,17.47-.18,26,5.07S135.15,226.42,127,233s-15.55,2-16.75-6.6S106.74,199.9,99.07,202s-10.06,8.51,0,26.41,15.26,32.64,12,41.48-15.81,18-23.81,9.21-4.8-16.7-3.37-25.49,5.21-23.59-.62-31.19S70,208.23,62.36,216.27s-4.86,19.15.31,25.34,6.62,14.86,2.46,21.35-25,11.47-30.42,2.46-7.49-15.77-1.38-19.81,23.91-18,16.28-19.05-10.9,6-24.73,9.83S0,237.47,0,226.56s4.62-14.29,12-16.13,48.93-2.63,57-6,13.15-6.36,10.9-14.9-.9-16.6-11.21-11.36S46.54,198.27,31,198.3s-19.21-6-18.13-13.21S17.36,170,28.72,169.88s38.79-.66,43-5.53,5-9.61,1.08-10S65.42,151.36,58.21,157Z" transform="translate(0.28 0.28)"/>
      <path id="baby" class="cls-1" d="M373.28,149.3c0-4,.31-8.19,2.65-12.41a24,24,0,0,1,5.26-6.35,46.52,46.52,0,0,1,9.63-6.3c8.16-4.17,7.63-2.43,4.64,1.14s-8.44,9-10.11,12.12-3.94,9.36-6.09,14.58-4.18,9.46-5.38,8.69C371.48,159.22,373.27,157.32,373.28,149.3Z" transform="translate(0.28 0.28)"/>
      <circle id="anchor" class="cls-2" cx="13.19" cy="185.37" r="5.18"/>
    </g>
  </svg>
